<svg t="1618827287272" class="icon" viewBox="0 0 1024 1024" version="1.1" xmlns="http://www.w3.org/2000/svg" p-id="2132" width="32" height="32"><path d="M512.325 513.015m-448.112 0a448.112 448.112 0 1 0 896.224 0 448.112 448.112 0 1 0-896.224 0Z" fill="#C75C5C" p-id="2133"></path><path d="M301.629 765.078c-61.615 0-86.822-43.659-56.014-97.019L456.31 303.124c30.808-53.361 81.22-53.361 112.028 0l210.695 364.935c30.808 53.361 5.601 97.019-56.014 97.019h-421.39z" fill="#231F20" p-id="2134"></path><path d="M301.629 737.071c-61.615 0-86.822-43.659-56.014-97.019L456.31 275.117c30.808-53.361 81.22-53.361 112.028 0l210.695 364.935c30.808 53.361 5.601 97.019-56.014 97.019h-421.39z" fill="#F5CF87" p-id="2135"></path><path d="M540.332 513.015c0 15.468-12.539 28.007-28.007 28.007-15.468 0-28.007-12.539-28.007-28.007V400.987c0-15.468 12.539-28.007 28.007-28.007 15.468 0 28.007 12.539 28.007 28.007v112.028zM540.332 625.043c0 15.468-12.539 28.007-28.007 28.007-15.468 0-28.007-12.539-28.007-28.007 0-15.468 12.539-28.007 28.007-28.007 15.467 0 28.007 12.539 28.007 28.007z" fill="#4F5D73" p-id="2136"></path></svg>